<svg width="1628" height="373" viewBox="0 0 1628 373" fill="none" xmlns="http://www.w3.org/2000/svg">
<path d="M518.189 277.298L550.673 314.852C534.691 335.903 500.127 356.434 449.061 356.434C369.409 356.434 321.852 306.405 321.852 235.327C321.852 164.248 369.409 114.22 442.564 114.22C511.692 114.22 551.193 161.259 551.193 225.841C551.193 240.914 549.244 250.92 549.244 250.92H390.069C396.046 282.496 418.136 304.456 457.118 304.456C490.642 304.456 508.183 288.473 518.189 277.428V277.298ZM390.069 215.185H488.693C488.173 187.118 471.151 166.067 442.694 166.067C415.667 166.067 395.137 183.609 390.069 215.185Z" fill="white"/>
<path d="M774.557 339.411C774.557 339.411 749.479 356.434 704 356.434C641.89 356.434 609.405 322.909 609.405 255.858V169.186H573.412V117.079H612.524V50.548L678.662 48.0791V117.209H761.823V169.316H678.662V252.869C678.662 284.445 690.617 298.479 717.254 298.479C741.293 298.479 755.326 286.005 755.326 286.005L774.817 339.541L774.557 339.411Z" fill="white"/>
<path d="M1081.86 140.209C1081.86 218.304 1027.29 257.417 952.703 257.417H895.66V353.575H824.584V23H943.218C1029.89 23 1081.86 62.1129 1081.86 140.209ZM1009.75 140.209C1009.75 102.655 985.188 79.1354 936.201 79.1354H895.66V201.282H939.19C984.278 201.282 1009.75 179.711 1009.75 140.209Z" fill="white"/>
<path d="M1364.09 352.016C1364.09 352.016 1349.54 356.564 1331.08 356.564C1295.48 356.564 1278.46 341.49 1275.47 312.513H1274.95C1263 337.982 1240.39 356.564 1199.85 356.564C1139.29 356.564 1092.65 311.993 1092.65 235.457C1092.65 164.378 1133.19 114.35 1198.29 114.35C1238.31 114.35 1263.39 133.842 1275.86 161.909H1277.42C1276.9 155.412 1280.41 131.892 1285.48 117.339H1339.53V286.005C1339.53 297.05 1343.56 301.468 1353.04 301.468C1356.03 301.468 1359.02 300.948 1361.62 299.909L1364.09 352.016ZM1270.92 242.864L1271.44 226.881L1270.92 227.401C1270.92 199.333 1250.39 171.785 1214.79 171.785C1182.69 171.785 1162.16 196.344 1162.16 235.327C1162.16 274.31 1183.21 298.869 1216.22 298.869C1249.22 298.869 1270.79 268.852 1270.79 242.864H1270.92Z" fill="white"/>
<path d="M1627.99 0V353.445L1572.38 355.394C1568.87 340.841 1565.36 315.372 1565.88 308.875H1564.32C1551.33 336.942 1526.25 356.434 1485.71 356.434C1421.65 356.434 1381.11 305.886 1381.11 236.236C1381.11 158.141 1429.19 114.09 1489.22 114.09C1523.26 114.09 1545.74 127.084 1559.26 146.186V0H1627.86H1627.99ZM1559.39 243.383V227.4C1559.39 201.412 1539.9 171.785 1503.25 171.785C1471.16 171.785 1450.63 196.864 1450.63 236.366C1450.63 275.869 1471.68 298.999 1504.68 298.999C1537.69 298.999 1559.26 270.931 1559.26 243.383H1559.39Z" fill="white"/>
<path d="M150.073 372.157L130.322 357.863C-20.9261 248.451 0.64375 45.3503 1.55332 36.7741L5.06166 6.88721H115.899V74.4576H67.822C68.4717 123.446 79.3865 221.683 150.073 286.914C221.279 221.423 231.934 123.316 232.454 74.4576H184.247V6.88721H295.084L298.593 36.7741C299.632 45.3503 321.202 248.451 169.954 357.863L150.203 372.157H150.073Z" fill="white"/>
</svg>
